<svg id="Layer_1" data-name="Layer 1" xmlns="http://www.w3.org/2000/svg" xmlns:xlink="http://www.w3.org/1999/xlink" viewBox="0 0 1366 854.88"><defs><style>.cls-1{fill:#fff;}.cls-2{fill:#f6ed57;}.cls-3{font-size:140px;font-family:Poppins-ExtraBoldItalic, Poppins;font-weight:800;font-style:italic;}.cls-4{letter-spacing:0.02em;}.cls-5,.cls-6{fill:none;stroke:#000;stroke-width:3px;}.cls-6{stroke-linecap:round;stroke-linejoin:round;}.cls-7{mask:url(#mask);}.cls-8{mask:url(#mask-2);}.cls-9{mask:url(#mask-3);}.cls-10{mask:url(#mask-4);}.cls-11{mask:url(#mask-5);}.cls-12{mask:url(#mask-6);}.cls-13{mask:url(#mask-7);}.cls-14{mask:url(#mask-8);}</style><mask id="mask" x="121.43" y="655.17" width="27.14" height="42.41" maskUnits="userSpaceOnUse"><g transform="translate(0 0.37)"><g id="path-3-inside-1"><ellipse class="cls-1" cx="135.32" cy="675.95" rx="5.94" ry="13.57"/></g></g></mask><mask id="mask-2" x="156.43" y="655.17" width="27.14" height="42.41" maskUnits="userSpaceOnUse"><g transform="translate(0 0.37)"><g id="path-5-inside-2"><ellipse class="cls-1" cx="170.1" cy="675.95" rx="5.94" ry="13.57"/></g></g></mask><mask id="mask-3" x="121.43" y="43.17" width="27.14" height="42.41" maskUnits="userSpaceOnUse"><g transform="translate(0 0.37)"><g id="path-3-inside-1-2" data-name="path-3-inside-1"><ellipse class="cls-1" cx="135.32" cy="63.95" rx="5.94" ry="13.57"/></g></g></mask><mask id="mask-4" x="156.43" y="43.17" width="27.14" height="42.41" maskUnits="userSpaceOnUse"><g transform="translate(0 0.37)"><g id="path-5-inside-2-2" data-name="path-5-inside-2"><ellipse class="cls-1" cx="170.1" cy="63.95" rx="5.94" ry="13.57"/></g></g></mask><mask id="mask-5" x="1234.43" y="32.17" width="27.14" height="42.41" maskUnits="userSpaceOnUse"><g transform="translate(0 0.37)"><g id="path-3-inside-1-3" data-name="path-3-inside-1"><ellipse class="cls-1" cx="1248.32" cy="52.95" rx="5.94" ry="13.57"/></g></g></mask><mask id="mask-6" x="1269.43" y="32.17" width="27.14" height="42.41" maskUnits="userSpaceOnUse"><g transform="translate(0 0.37)"><g id="path-5-inside-2-3" data-name="path-5-inside-2"><ellipse class="cls-1" cx="1283.1" cy="52.95" rx="5.94" ry="13.57"/></g></g></mask><mask id="mask-7" x="1231.43" y="660.17" width="27.14" height="42.41" maskUnits="userSpaceOnUse"><g transform="translate(0 0.37)"><g id="path-3-inside-1-4" data-name="path-3-inside-1"><ellipse class="cls-1" cx="1245.32" cy="680.95" rx="5.94" ry="13.57"/></g></g></mask><mask id="mask-8" x="1266.43" y="660.17" width="27.14" height="42.41" maskUnits="userSpaceOnUse"><g transform="translate(0 0.37)"><g id="path-5-inside-2-4" data-name="path-5-inside-2"><ellipse class="cls-1" cx="1280.1" cy="680.95" rx="5.94" ry="13.57"/></g></g></mask></defs><rect class="cls-2" y="0.37" width="1366" height="768"/><text class="cls-3" transform="translate(191.6 572.37) rotate(-90)"><tspan class="cls-4">FAC</tspan><tspan x="300" y="0">E</tspan></text><text class="cls-3" transform="translate(391.43 119.63) scale(1.09 1)">DO NOT</text><text class="cls-3" transform="translate(450.34 768.64) scale(1.09 1)">YOUR</text><text class="cls-3" transform="translate(1215.5 132.14) rotate(90)">TOUCH</text><g id="path-5-inside-2-5" data-name="path-5-inside-2"><ellipse class="cls-1" cx="170.1" cy="676.32" rx="5.94" ry="13.57"/></g><g id="path-3-inside-1-5" data-name="path-3-inside-1"><ellipse class="cls-1" cx="135.32" cy="676.32" rx="5.94" ry="13.57"/></g><circle class="cls-5" cx="152.29" cy="698.37" r="66.58"/><path class="cls-6" d="M115,698c0,20.14,16.71,36.47,37.33,36.47s37.32-16.33,37.32-36.47" transform="translate(0 0.37)"/><g class="cls-7"><path d="M136.7,676a17.14,17.14,0,0,0,1.1,6.54c.28.65.42.7.19.48a4.32,4.32,0,0,0-3-1.08v15.27a11,11,0,0,1-7.62-3.22,16.64,16.64,0,0,1-3.57-5.33A32.21,32.21,0,0,1,121.43,676Zm-1.7,5.94a4.32,4.32,0,0,0-3,1.08c-.23.22-.09.17.19-.48a17.14,17.14,0,0,0,1.1-6.54h15.27a32.21,32.21,0,0,1-2.38,12.66,16.64,16.64,0,0,1-3.57,5.33,11,11,0,0,1-7.62,3.22ZM133.3,676a17.14,17.14,0,0,0-1.1-6.54c-.28-.65-.42-.7-.19-.48a4.32,4.32,0,0,0,3,1.08V654.79a11,11,0,0,1,7.62,3.22,16.64,16.64,0,0,1,3.57,5.33A32.21,32.21,0,0,1,148.57,676Zm1.7-5.94a4.32,4.32,0,0,0,3-1.08c.23-.22.09-.17-.19.48a17.14,17.14,0,0,0-1.1,6.54H121.43a32.21,32.21,0,0,1,2.38-12.66,16.64,16.64,0,0,1,3.57-5.33,11,11,0,0,1,7.62-3.22Z" transform="translate(0 0.37)"/></g><g class="cls-8"><path d="M171.7,676a17.14,17.14,0,0,0,1.1,6.54c.28.65.42.7.2.48a4.38,4.38,0,0,0-3-1.08v15.27a11,11,0,0,1-7.62-3.22,16.64,16.64,0,0,1-3.57-5.33A32.21,32.21,0,0,1,156.43,676Zm-1.7,5.94a4.32,4.32,0,0,0-3,1.08c-.23.22-.09.17.19-.48a17.14,17.14,0,0,0,1.1-6.54h15.27a32.21,32.21,0,0,1-2.38,12.66,16.64,16.64,0,0,1-3.57,5.33,11,11,0,0,1-7.62,3.22ZM168.3,676a17.14,17.14,0,0,0-1.1-6.54c-.28-.65-.42-.7-.19-.48a4.32,4.32,0,0,0,3,1.08V654.79a11,11,0,0,1,7.62,3.22,16.64,16.64,0,0,1,3.57,5.33A32.21,32.21,0,0,1,183.57,676Zm1.7-5.94a4.38,4.38,0,0,0,3-1.08c.22-.22.08-.17-.2.48a17.14,17.14,0,0,0-1.1,6.54H156.43a32.21,32.21,0,0,1,2.38-12.66,16.64,16.64,0,0,1,3.57-5.33,11,11,0,0,1,7.62-3.22Z" transform="translate(0 0.37)"/></g><g id="path-5-inside-2-6" data-name="path-5-inside-2"><ellipse class="cls-1" cx="170.1" cy="64.32" rx="5.94" ry="13.57"/></g><g id="path-3-inside-1-6" data-name="path-3-inside-1"><ellipse class="cls-1" cx="135.32" cy="64.32" rx="5.94" ry="13.57"/></g><circle class="cls-5" cx="152.29" cy="86.37" r="66.58"/><path class="cls-6" d="M115,86c0,20.14,16.71,36.47,37.33,36.47S189.61,106.14,189.61,86" transform="translate(0 0.37)"/><g class="cls-9"><path d="M136.7,64a17.14,17.14,0,0,0,1.1,6.54c.28.65.42.7.19.48a4.32,4.32,0,0,0-3-1.08V85.21A11,11,0,0,1,127.38,82a16.64,16.64,0,0,1-3.57-5.33A32.21,32.21,0,0,1,121.43,64ZM135,69.94A4.32,4.32,0,0,0,132,71c-.23.22-.09.17.19-.48A17.14,17.14,0,0,0,133.3,64h15.27a32.21,32.21,0,0,1-2.38,12.66A16.64,16.64,0,0,1,142.62,82,11,11,0,0,1,135,85.21ZM133.3,64a17.14,17.14,0,0,0-1.1-6.54c-.28-.65-.42-.7-.19-.48a4.32,4.32,0,0,0,3,1.08V42.79A11,11,0,0,1,142.62,46a16.64,16.64,0,0,1,3.57,5.33A32.21,32.21,0,0,1,148.57,64Zm1.7-5.94A4.32,4.32,0,0,0,138,57c.23-.22.09-.17-.19.48A17.14,17.14,0,0,0,136.7,64H121.43a32.21,32.21,0,0,1,2.38-12.66A16.64,16.64,0,0,1,127.38,46,11,11,0,0,1,135,42.79Z" transform="translate(0 0.37)"/></g><g class="cls-10"><path d="M171.7,64a17.14,17.14,0,0,0,1.1,6.54c.28.65.42.7.2.48a4.38,4.38,0,0,0-3-1.08V85.21A11,11,0,0,1,162.38,82a16.64,16.64,0,0,1-3.57-5.33A32.21,32.21,0,0,1,156.43,64ZM170,69.94A4.32,4.32,0,0,0,167,71c-.23.22-.09.17.19-.48A17.14,17.14,0,0,0,168.3,64h15.27a32.21,32.21,0,0,1-2.38,12.66A16.64,16.64,0,0,1,177.62,82,11,11,0,0,1,170,85.21ZM168.3,64a17.14,17.14,0,0,0-1.1-6.54c-.28-.65-.42-.7-.19-.48a4.32,4.32,0,0,0,3,1.08V42.79A11,11,0,0,1,177.62,46a16.64,16.64,0,0,1,3.57,5.33A32.21,32.21,0,0,1,183.57,64Zm1.7-5.94A4.38,4.38,0,0,0,173,57c.22-.22.08-.17-.2.48A17.14,17.14,0,0,0,171.7,64H156.43a32.21,32.21,0,0,1,2.38-12.66A16.64,16.64,0,0,1,162.38,46,11,11,0,0,1,170,42.79Z" transform="translate(0 0.37)"/></g><g id="path-5-inside-2-7" data-name="path-5-inside-2"><ellipse class="cls-1" cx="1283.1" cy="53.32" rx="5.94" ry="13.57"/></g><g id="path-3-inside-1-7" data-name="path-3-inside-1"><ellipse class="cls-1" cx="1248.32" cy="53.32" rx="5.94" ry="13.57"/></g><circle class="cls-5" cx="1265.29" cy="75.37" r="66.58"/><path class="cls-6" d="M1228,75c0,20.14,16.71,36.47,37.33,36.47s37.32-16.33,37.32-36.47" transform="translate(0 0.37)"/><g class="cls-11"><path d="M1249.7,53a17.14,17.14,0,0,0,1.1,6.54c.28.65.42.7.19.48a4.32,4.32,0,0,0-3-1.08V74.21a11,11,0,0,1-7.62-3.22,16.64,16.64,0,0,1-3.57-5.33A32.21,32.21,0,0,1,1234.43,53Zm-1.7,5.94a4.32,4.32,0,0,0-3,1.08c-.23.22-.09.17.19-.48a17.14,17.14,0,0,0,1.1-6.54h15.27a32.21,32.21,0,0,1-2.38,12.66,16.64,16.64,0,0,1-3.57,5.33,11,11,0,0,1-7.62,3.22ZM1246.3,53a17.14,17.14,0,0,0-1.1-6.54c-.28-.65-.42-.7-.19-.48a4.32,4.32,0,0,0,3,1.08V31.79a11,11,0,0,1,7.62,3.22,16.64,16.64,0,0,1,3.57,5.33A32.21,32.21,0,0,1,1261.57,53Zm1.7-5.94a4.32,4.32,0,0,0,3-1.08c.23-.22.09-.17-.19.48a17.14,17.14,0,0,0-1.1,6.54h-15.27a32.21,32.21,0,0,1,2.38-12.66,16.64,16.64,0,0,1,3.57-5.33,11,11,0,0,1,7.62-3.22Z" transform="translate(0 0.37)"/></g><g class="cls-12"><path d="M1284.7,53a17.14,17.14,0,0,0,1.1,6.54c.28.65.42.7.2.48a4.38,4.38,0,0,0-3-1.08V74.21a11,11,0,0,1-7.62-3.22,16.64,16.64,0,0,1-3.57-5.33A32.21,32.21,0,0,1,1269.43,53Zm-1.7,5.94a4.32,4.32,0,0,0-3,1.08c-.23.22-.09.17.19-.48a17.14,17.14,0,0,0,1.1-6.54h15.27a32.21,32.21,0,0,1-2.38,12.66,16.64,16.64,0,0,1-3.57,5.33,11,11,0,0,1-7.62,3.22ZM1281.3,53a17.14,17.14,0,0,0-1.1-6.54c-.28-.65-.42-.7-.19-.48a4.32,4.32,0,0,0,3,1.08V31.79a11,11,0,0,1,7.62,3.22,16.64,16.64,0,0,1,3.57,5.33A32.21,32.21,0,0,1,1296.57,53Zm1.7-5.94a4.38,4.38,0,0,0,3-1.08c.22-.22.08-.17-.2.48a17.14,17.14,0,0,0-1.1,6.54h-15.27a32.21,32.21,0,0,1,2.38-12.66,16.64,16.64,0,0,1,3.57-5.33,11,11,0,0,1,7.62-3.22Z" transform="translate(0 0.37)"/></g><g id="path-5-inside-2-8" data-name="path-5-inside-2"><ellipse class="cls-1" cx="1280.1" cy="681.32" rx="5.94" ry="13.57"/></g><g id="path-3-inside-1-8" data-name="path-3-inside-1"><ellipse class="cls-1" cx="1245.32" cy="681.32" rx="5.94" ry="13.57"/></g><circle class="cls-5" cx="1262.29" cy="703.37" r="66.58"/><path class="cls-6" d="M1225,703c0,20.14,16.71,36.47,37.33,36.47s37.32-16.33,37.32-36.47" transform="translate(0 0.37)"/><g class="cls-13"><path d="M1246.7,681a17.14,17.14,0,0,0,1.1,6.54c.28.65.42.7.19.48a4.32,4.32,0,0,0-3-1.08v15.27a11,11,0,0,1-7.62-3.22,16.64,16.64,0,0,1-3.57-5.33,32.21,32.21,0,0,1-2.38-12.66Zm-1.7,5.94a4.32,4.32,0,0,0-3,1.08c-.23.22-.09.17.19-.48a17.14,17.14,0,0,0,1.1-6.54h15.27a32.21,32.21,0,0,1-2.38,12.66,16.64,16.64,0,0,1-3.57,5.33,11,11,0,0,1-7.62,3.22Zm-1.7-5.94a17.14,17.14,0,0,0-1.1-6.54c-.28-.65-.42-.7-.19-.48a4.32,4.32,0,0,0,3,1.08V659.79a11,11,0,0,1,7.62,3.22,16.64,16.64,0,0,1,3.57,5.33,32.21,32.21,0,0,1,2.38,12.66Zm1.7-5.94a4.32,4.32,0,0,0,3-1.08c.23-.22.09-.17-.19.48a17.14,17.14,0,0,0-1.1,6.54h-15.27a32.21,32.21,0,0,1,2.38-12.66,16.64,16.64,0,0,1,3.57-5.33,11,11,0,0,1,7.62-3.22Z" transform="translate(0 0.37)"/></g><g class="cls-14"><path d="M1281.7,681a17.14,17.14,0,0,0,1.1,6.54c.28.65.42.7.2.48a4.38,4.38,0,0,0-3-1.08v15.27a11,11,0,0,1-7.62-3.22,16.64,16.64,0,0,1-3.57-5.33,32.21,32.21,0,0,1-2.38-12.66Zm-1.7,5.94a4.32,4.32,0,0,0-3,1.08c-.23.22-.09.17.19-.48a17.14,17.14,0,0,0,1.1-6.54h15.27a32.21,32.21,0,0,1-2.38,12.66,16.64,16.64,0,0,1-3.57,5.33,11,11,0,0,1-7.62,3.22Zm-1.7-5.94a17.14,17.14,0,0,0-1.1-6.54c-.28-.65-.42-.7-.19-.48a4.32,4.32,0,0,0,3,1.08V659.79a11,11,0,0,1,7.62,3.22,16.64,16.64,0,0,1,3.57,5.33,32.21,32.21,0,0,1,2.38,12.66Zm1.7-5.94a4.38,4.38,0,0,0,3-1.08c.22-.22.08-.17-.2.48a17.14,17.14,0,0,0-1.1,6.54h-15.27a32.21,32.21,0,0,1,2.38-12.66,16.64,16.64,0,0,1,3.57-5.33,11,11,0,0,1,7.62-3.22Z" transform="translate(0 0.37)"/></g></svg>